<svg width="1080" height="1080" viewBox="0 0 1080 1080" fill="none" xmlns="http://www.w3.org/2000/svg">
<g clip-path="url(#clip0_1_16)">
<path d="M812 0C960.012 0 1080 119.988 1080 268V812C1080 960.012 960.012 1080 812 1080H268C119.988 1080 0 960.012 0 812V268C0 119.988 119.988 0 268 0H812ZM759.478 419.363C739.932 419.363 723.568 422.697 710.387 429.363C697.356 435.878 686.75 444.061 678.568 453.909C670.538 463.606 664.402 473.152 660.159 482.546H655.841V423.909H560.387V903.909H657.204V717.091H660.159C664.553 726.788 670.917 736.409 679.25 745.954C687.583 755.348 698.266 763.151 711.296 769.363C724.478 775.575 740.462 778.682 759.25 778.682C785.765 778.682 809.705 771.864 831.068 758.228C852.583 744.44 869.553 724.212 881.978 697.546C894.553 670.728 900.841 637.849 900.841 598.909C900.841 558.909 894.401 525.652 881.522 499.137C868.644 472.47 851.447 452.545 829.932 439.363C808.417 426.03 784.932 419.363 759.478 419.363ZM193.454 307.546V773H291.863V580.728H481.182V499.591H291.863V388.682H501.637V307.546H193.454ZM728.568 496.409C744.477 496.409 757.887 500.727 768.796 509.363C779.705 518 787.962 529.97 793.568 545.272C799.174 560.575 801.977 578.303 801.978 598.454C801.978 618.757 799.098 636.712 793.341 652.318C787.735 667.773 779.477 679.894 768.568 688.682C757.659 697.318 744.326 701.637 728.568 701.637C712.962 701.637 699.705 697.394 688.796 688.909C677.887 680.273 669.553 668.227 663.796 652.772C658.038 637.318 655.159 619.212 655.159 598.454C655.159 577.697 658.038 559.666 663.796 544.363C669.553 529.06 677.811 517.242 688.568 508.909C699.477 500.576 712.811 496.409 728.568 496.409Z" fill="url(#paint0_linear_1_16)"/>
</g>
<defs>
<linearGradient id="paint0_linear_1_16" x1="1080" y1="0" x2="0" y2="1080" gradientUnits="userSpaceOnUse">
<stop stop-color="#FFB956"/>
<stop offset="1" stop-color="#9901FE"/>
</linearGradient>
<clipPath id="clip0_1_16">
<rect width="1080" height="1080" fill="white"/>
</clipPath>
</defs>
</svg>
